<svg width="20" height="20" viewBox="0 0 20 20" fill="none" xmlns="http://www.w3.org/2000/svg">
<path d="M5 18.8327V3.83268C5 3.39065 5.17559 2.96673 5.48816 2.65417C5.80072 2.34161 6.22464 2.16602 6.66667 2.16602H13.3333C13.7754 2.16602 14.1993 2.34161 14.5118 2.65417C14.8244 2.96673 15 3.39065 15 3.83268V18.8327H5Z" stroke="#2474F5" stroke-width="1.66667" stroke-linecap="round" stroke-linejoin="round"/>
<path d="M5.00008 10.5H3.33341C2.89139 10.5 2.46746 10.6756 2.1549 10.9882C1.84234 11.3007 1.66675 11.7246 1.66675 12.1667V17.1667C1.66675 17.6087 1.84234 18.0326 2.1549 18.3452C2.46746 18.6577 2.89139 18.8333 3.33341 18.8333H5.00008" stroke="#2474F5" stroke-width="1.66667" stroke-linecap="round" stroke-linejoin="round"/>
<path d="M15 8H16.6667C17.1087 8 17.5326 8.1756 17.8452 8.48816C18.1577 8.80072 18.3333 9.22464 18.3333 9.66667V17.1667C18.3333 17.6087 18.1577 18.0326 17.8452 18.3452C17.5326 18.6577 17.1087 18.8333 16.6667 18.8333H15" stroke="#2474F5" stroke-width="1.66667" stroke-linecap="round" stroke-linejoin="round"/>
<path d="M8.33325 5.5H11.6666" stroke="#2474F5" stroke-width="1.66667" stroke-linecap="round" stroke-linejoin="round"/>
<path d="M8.33325 8.83398H11.6666" stroke="#2474F5" stroke-width="1.66667" stroke-linecap="round" stroke-linejoin="round"/>
<path d="M8.33325 12.166H11.6666" stroke="#2474F5" stroke-width="1.66667" stroke-linecap="round" stroke-linejoin="round"/>
<path d="M8.33325 15.5H11.6666" stroke="#2474F5" stroke-width="1.66667" stroke-linecap="round" stroke-linejoin="round"/>
</svg>
