<svg width="20" height="20" viewBox="0 0 20 20" fill="none" xmlns="http://www.w3.org/2000/svg">
<path d="M9.60404 2.41176C9.64056 2.33798 9.69697 2.27587 9.76692 2.23245C9.83686 2.18903 9.91755 2.16602 9.99987 2.16602C10.0822 2.16602 10.1629 2.18903 10.2328 2.23245C10.3028 2.27587 10.3592 2.33798 10.3957 2.41176L12.3207 6.31093C12.4475 6.56757 12.6347 6.7896 12.8662 6.95797C13.0977 7.12634 13.3666 7.23602 13.6499 7.27759L17.9549 7.90759C18.0364 7.91941 18.1131 7.95382 18.1761 8.00693C18.2391 8.06003 18.2861 8.12972 18.3116 8.2081C18.337 8.28648 18.3401 8.37043 18.3204 8.45046C18.3006 8.53048 18.2589 8.60339 18.1999 8.66093L15.0865 11.6926C14.8812 11.8927 14.7276 12.1397 14.6389 12.4123C14.5502 12.6849 14.5291 12.975 14.5774 13.2576L15.3124 17.5409C15.3268 17.6225 15.318 17.7064 15.287 17.7832C15.2559 17.8599 15.204 17.9264 15.137 17.9751C15.07 18.0237 14.9907 18.0526 14.9081 18.0583C14.8255 18.0641 14.743 18.0465 14.6699 18.0076L10.8215 15.9843C10.568 15.8511 10.2859 15.7816 9.99946 15.7816C9.71306 15.7816 9.43094 15.8511 9.17737 15.9843L5.32987 18.0076C5.25681 18.0463 5.17437 18.0637 5.09191 18.0578C5.00946 18.0519 4.9303 18.0231 4.86345 17.9744C4.7966 17.9258 4.74473 17.8594 4.71375 17.7828C4.68277 17.7061 4.67392 17.6223 4.68821 17.5409L5.42237 13.2584C5.47087 12.9757 5.44986 12.6854 5.36115 12.4126C5.27245 12.1398 5.11871 11.8927 4.91321 11.6926L1.79987 8.66176C1.74037 8.60429 1.6982 8.53126 1.67817 8.45099C1.65815 8.37072 1.66107 8.28644 1.6866 8.20775C1.71214 8.12906 1.75926 8.05913 1.8226 8.00591C1.88594 7.9527 1.96296 7.91834 2.04487 7.90676L6.34904 7.27759C6.63259 7.23634 6.90186 7.12681 7.13369 6.95842C7.36552 6.79002 7.55296 6.56782 7.67987 6.31093L9.60404 2.41176Z" stroke="#F59F0A" stroke-width="1.66667" stroke-linecap="round" stroke-linejoin="round"/>
</svg>
