<svg width="20" height="20" viewBox="0 0 20 20" fill="none" xmlns="http://www.w3.org/2000/svg">
<path d="M15.8334 14.6673H17.5001C18.0001 14.6673 18.3334 14.334 18.3334 13.834V11.334C18.3334 10.584 17.7501 9.91732 17.0834 9.75065C15.5834 9.33398 13.3334 8.83398 13.3334 8.83398C13.3334 8.83398 12.2501 7.66732 11.5001 6.91732C11.0834 6.58398 10.5834 6.33398 10.0001 6.33398H4.16675C3.66675 6.33398 3.25008 6.66732 3.00008 7.08398L1.83341 9.50065C1.72306 9.82251 1.66675 10.1604 1.66675 10.5007V13.834C1.66675 14.334 2.00008 14.6673 2.50008 14.6673H4.16675" stroke="#2474F5" stroke-width="1.66667" stroke-linecap="round" stroke-linejoin="round"/>
<path d="M5.83341 16.3333C6.75389 16.3333 7.50008 15.5871 7.50008 14.6667C7.50008 13.7462 6.75389 13 5.83341 13C4.91294 13 4.16675 13.7462 4.16675 14.6667C4.16675 15.5871 4.91294 16.3333 5.83341 16.3333Z" stroke="#2474F5" stroke-width="1.66667" stroke-linecap="round" stroke-linejoin="round"/>
<path d="M7.5 14.666H12.5" stroke="#2474F5" stroke-width="1.66667" stroke-linecap="round" stroke-linejoin="round"/>
<path d="M14.1667 16.3333C15.0871 16.3333 15.8333 15.5871 15.8333 14.6667C15.8333 13.7462 15.0871 13 14.1667 13C13.2462 13 12.5 13.7462 12.5 14.6667C12.5 15.5871 13.2462 16.3333 14.1667 16.3333Z" stroke="#2474F5" stroke-width="1.66667" stroke-linecap="round" stroke-linejoin="round"/>
</svg>

