<svg width="20" height="20" viewBox="0 0 20 20" fill="none" xmlns="http://www.w3.org/2000/svg">
<path d="M13.3332 18V16.3333C13.3332 15.4493 12.982 14.6014 12.3569 13.9763C11.7317 13.3512 10.8839 13 9.99984 13H4.99984C4.11578 13 3.26794 13.3512 2.64281 13.9763C2.01769 14.6014 1.6665 15.4493 1.6665 16.3333V18" stroke="#2474F5" stroke-width="1.66667" stroke-linecap="round" stroke-linejoin="round"/>
<path d="M7.49984 9.66667C9.34079 9.66667 10.8332 8.17428 10.8332 6.33333C10.8332 4.49238 9.34079 3 7.49984 3C5.65889 3 4.1665 4.49238 4.1665 6.33333C4.1665 8.17428 5.65889 9.66667 7.49984 9.66667Z" stroke="#2474F5" stroke-width="1.66667" stroke-linecap="round" stroke-linejoin="round"/>
<path d="M18.3335 17.9991V16.3324C18.3329 15.5939 18.0871 14.8764 17.6346 14.2927C17.1821 13.709 16.5486 13.2921 15.8335 13.1074" stroke="#2474F5" stroke-width="1.66667" stroke-linecap="round" stroke-linejoin="round"/>
<path d="M13.3335 3.10742C14.0505 3.29101 14.686 3.70801 15.1399 4.29268C15.5937 4.87735 15.84 5.59645 15.84 6.33659C15.84 7.07673 15.5937 7.79582 15.1399 8.3805C14.686 8.96517 14.0505 9.38217 13.3335 9.56576" stroke="#2474F5" stroke-width="1.66667" stroke-linecap="round" stroke-linejoin="round"/>
</svg>
