<svg width="18" height="18" viewBox="0 0 18 18" fill="none" xmlns="http://www.w3.org/2000/svg">
<g clip-path="url(#clip0_1011_3043)">
<path d="M10.6392 17.0127H16.7417C16.9294 17.0127 17.0129 16.9804 17.0552 16.9375C17.0979 16.8941 17.1294 16.8085 17.1294 16.6182V9.23926C17.1294 9.05217 17.1064 8.97541 17.0708 8.93262C17.0347 8.88953 16.9631 8.85246 16.7798 8.81641L11.4917 7.77051C11.2109 7.71436 10.9275 7.65897 10.6372 7.60254L10.6392 17.0127ZM1.24854 0.881836C1.09561 0.858781 1.00901 0.88502 0.961426 0.924805C0.914747 0.963888 0.875488 1.0416 0.875488 1.19336V16.6709C0.875533 16.8205 0.907626 16.8963 0.949707 16.9375C0.992598 16.9794 1.0722 17.0115 1.22705 17.0117H2.82373C2.84009 17.0117 2.8557 17.0098 2.87256 17.0088V13.8301C2.87256 13.4372 2.99916 13.1039 3.23486 12.8682C3.47041 12.6326 3.80305 12.5055 4.19385 12.5039C4.89113 12.5014 5.58902 12.5014 6.28662 12.5039C6.69023 12.504 7.02695 12.6267 7.26318 12.8652C7.49925 13.1036 7.62001 13.443 7.62061 13.8496V17.0039L9.62354 17.0029V2.38965C9.61912 2.29289 9.59629 2.23612 9.56592 2.2002C9.53553 2.16428 9.48329 2.13247 9.38623 2.11523V2.11426C9.11714 2.06764 8.84671 2.02767 8.57471 1.98633C6.13265 1.61814 3.69059 1.25002 1.24854 0.881836ZM4.23975 13.5029C4.06304 13.5029 3.98657 13.5334 3.94873 13.5713C3.91086 13.6092 3.88037 13.6859 3.88037 13.8633V16.9424C3.88037 16.9639 3.883 16.9846 3.88428 17.0059H6.62744V13.8398C6.62744 13.6913 6.59538 13.6157 6.55518 13.5752C6.5152 13.535 6.4412 13.503 6.29443 13.5029H4.23975ZM18.1274 16.957L18.0649 17.1445L17.9966 17.3154C17.807 17.7094 17.468 17.9081 17.0854 18.0098L17.0698 18.0137H17.0532L0.95166 18.0117H0.92334L0.897949 18C0.811986 17.9599 0.730987 17.9285 0.635254 17.8867C0.544754 17.8472 0.449773 17.8017 0.362793 17.7412V17.7402C0.0470409 17.5171 -0.0980715 17.1868 -0.121582 16.8174V1.17285C-0.121582 0.510463 0.294991 -0.0430709 0.942871 -0.115234C1.23598 -0.147492 1.54231 -0.0888397 1.81006 -0.0488281C3.88207 0.262114 5.95415 0.576074 8.0249 0.894531H8.02393L9.51807 1.12695L9.64502 1.15332C9.93345 1.22342 10.1698 1.35989 10.3394 1.56055C10.5329 1.78978 10.6298 2.09105 10.6304 2.44238V6.57812L11.9644 6.84375C13.6852 7.18651 15.4081 7.5256 17.1284 7.87793C17.6245 7.97882 17.9522 8.29639 18.0874 8.78613C18.0948 8.80834 18.1045 8.83051 18.1147 8.85156L18.1274 8.87793V16.957Z" fill="black" stroke="black" stroke-width="0.25"/>
<path d="M4.10645 3.48926L4.10547 3.49023C4.25383 3.49029 4.38547 3.54032 4.48047 3.63281C4.57572 3.72556 4.62677 3.85352 4.62402 3.99316C4.62119 4.13279 4.56566 4.25676 4.46777 4.3457C4.3705 4.434 4.23874 4.48141 4.09277 4.4834C3.85075 4.4867 3.6109 4.48535 3.37207 4.48535C3.13462 4.48535 2.89175 4.48818 2.65137 4.48535C2.50491 4.48359 2.37357 4.43481 2.27734 4.34473C2.18055 4.25406 2.12664 4.12832 2.12598 3.98828C2.12537 3.84907 2.17651 3.72238 2.27246 3.63086C2.36819 3.53974 2.50059 3.49041 2.64844 3.48926C3.13472 3.48487 3.62079 3.48487 4.10645 3.48926Z" fill="black" stroke="black" stroke-width="0.25"/>
<path d="M4.10352 5.74219C4.24959 5.74449 4.38088 5.79298 4.47656 5.88379C4.57297 5.97549 4.62555 6.10294 4.62402 6.24414C4.62247 6.38492 4.56804 6.51044 4.4707 6.60059C4.37381 6.69017 4.24163 6.73811 4.0957 6.73926C3.61557 6.74239 3.13576 6.74239 2.65625 6.73926V6.73828C2.50958 6.73816 2.37726 6.69086 2.28027 6.60156C2.18299 6.51177 2.12816 6.38661 2.12598 6.24707C2.12384 6.10756 2.17413 5.97993 2.26953 5.8877C2.36444 5.79598 2.49612 5.74645 2.64355 5.74414C2.88578 5.74036 3.13817 5.74219 3.38281 5.74219C3.61945 5.74218 3.86296 5.73841 4.10352 5.74219Z" fill="black" stroke="black" stroke-width="0.25"/>
<path d="M4.08057 7.99414C4.23185 7.99613 4.36785 8.0396 4.46826 8.12793C4.57038 8.21779 4.62406 8.34454 4.62646 8.4873C4.62886 8.63261 4.57432 8.76193 4.47314 8.85352C4.37307 8.94402 4.23589 8.98926 4.08545 8.98926L4.08643 8.99023H2.66455C2.5133 8.99016 2.37742 8.94098 2.27881 8.84863C2.17962 8.75563 2.12635 8.62607 2.12842 8.48242C2.13051 8.34105 2.18267 8.21601 2.28174 8.12695C2.37963 8.03918 2.51272 7.99636 2.65869 7.99414H4.08057Z" fill="black" stroke="black" stroke-width="0.25"/>
<path d="M4.10742 10.249L4.10645 10.25C4.25456 10.2501 4.38638 10.2997 4.48145 10.3926C4.57683 10.4859 4.62706 10.615 4.62402 10.7559C4.61762 11.0378 4.3995 11.2371 4.11133 11.2432L4.1123 11.2441C3.8646 11.2508 3.61486 11.2481 3.37207 11.248C3.13425 11.248 2.89166 11.2499 2.65137 11.2471C2.50473 11.2453 2.37257 11.1972 2.27637 11.1064C2.17963 11.0151 2.12658 10.8879 2.12598 10.7471C2.12544 10.6069 2.17669 10.48 2.27344 10.3887C2.36961 10.2979 2.50191 10.2502 2.64941 10.249C3.13506 10.2446 3.62115 10.2446 4.10742 10.249Z" fill="black" stroke="black" stroke-width="0.25"/>
<path d="M7.17334 3.48535L7.17432 3.48633C7.4006 3.48583 7.63284 3.48238 7.86182 3.48633C8.004 3.48926 8.13146 3.53773 8.2251 3.62598C8.31917 3.71464 8.37176 3.83745 8.37451 3.97363C8.38 4.25667 8.15793 4.4783 7.85693 4.48145C7.37122 4.48552 6.88428 4.48552 6.39795 4.48145V4.48047C6.25099 4.48016 6.12011 4.4327 6.0249 4.34082C5.95305 4.27146 5.90645 4.18265 5.88818 4.08301L5.87939 3.98047C5.87999 3.84107 5.9281 3.71575 6.0249 3.625C6.12062 3.53544 6.25215 3.49034 6.39893 3.48535H7.17334Z" fill="black" stroke="black" stroke-width="0.25"/>
<path d="M7.85107 5.74219C7.99748 5.74421 8.12897 5.79271 8.2251 5.88281C8.3218 5.97346 8.37502 6.09916 8.37451 6.23926C8.37324 6.52909 8.14915 6.73544 7.8501 6.74023H6.39111C6.24816 6.73878 6.12027 6.69007 6.02686 6.60059C5.93327 6.51091 5.88186 6.38758 5.87939 6.25098C5.87704 6.10982 5.9231 5.98052 6.01807 5.88672C6.11252 5.79356 6.24373 5.74614 6.39111 5.74414C6.63639 5.74084 6.8856 5.74121 7.13037 5.74121C7.36791 5.74121 7.61058 5.73889 7.85107 5.74219Z" fill="black" stroke="black" stroke-width="0.25"/>
<path d="M7.84229 7.99707L7.84131 7.99805C7.98898 7.99805 8.12153 8.0425 8.21924 8.13086C8.31758 8.21985 8.3714 8.34448 8.37451 8.4834V8.48438C8.37717 8.62856 8.32443 8.7578 8.2251 8.85059C8.12653 8.9425 7.99074 8.99114 7.84033 8.99316H6.4165C6.26607 8.99143 6.13075 8.94603 6.03174 8.85547C5.93137 8.76365 5.87977 8.63498 5.88037 8.49121C5.88103 8.35069 5.92862 8.22422 6.02588 8.13281C6.12236 8.04222 6.25491 7.99846 6.40283 7.99707C6.88249 7.99331 7.36231 7.99331 7.84229 7.99707Z" fill="black" stroke="black" stroke-width="0.25"/>
<path d="M7.13086 10.249C7.36796 10.249 7.61103 10.2467 7.85156 10.25C7.99828 10.252 8.13052 10.3007 8.22656 10.3916C8.32312 10.4831 8.3759 10.6101 8.375 10.751C8.37408 10.8916 8.31995 11.0179 8.22266 11.1084C8.12599 11.1982 7.99396 11.2461 7.84766 11.2471C7.36732 11.2508 6.88694 11.2508 6.40723 11.2471V11.2461C6.26031 11.2459 6.12807 11.2017 6.03125 11.1123C5.93367 11.0221 5.88198 10.8957 5.87988 10.7559C5.87792 10.6117 5.92489 10.4827 6.02441 10.3896C6.12254 10.2981 6.25849 10.2541 6.40918 10.25H7.00586L7.13086 10.249Z" fill="black" stroke="black" stroke-width="0.25"/>
<path d="M14.6006 10.25C14.747 10.252 14.8784 10.3006 14.9746 10.3906C15.0714 10.4812 15.1255 10.6069 15.125 10.7471C15.1237 11.0368 14.8993 11.2433 14.6006 11.248H13.1416C12.9989 11.2466 12.8708 11.1986 12.7773 11.1094C12.6836 11.0197 12.6323 10.8955 12.6299 10.7588C12.6273 10.6174 12.6735 10.4883 12.7686 10.3945C12.8631 10.3015 12.9945 10.2542 13.1416 10.252C13.3869 10.2482 13.6351 10.249 13.8799 10.249C14.117 10.249 14.3601 10.2467 14.6006 10.25Z" fill="black" stroke="black" stroke-width="0.25"/>
<path d="M14.6079 12.5039C14.7554 12.5065 14.8871 12.5581 14.9819 12.6504C15.0771 12.7431 15.1282 12.8706 15.1245 13.0107C15.1209 13.1484 15.0684 13.2723 14.9741 13.3613C14.8801 13.4501 14.7517 13.4979 14.6099 13.499C14.118 13.5037 13.6265 13.5037 13.1353 13.499C12.992 13.4976 12.8641 13.447 12.772 13.3555C12.68 13.2641 12.6308 13.1389 12.6304 13.002C12.6301 12.8663 12.6762 12.7412 12.7671 12.6494C12.8581 12.5577 12.9853 12.5074 13.1284 12.5039H14.6079Z" fill="black" stroke="black" stroke-width="0.25"/>
<path d="M13.1284 14.7568C13.3766 14.755 13.6264 14.7578 13.8667 14.7578C14.1093 14.7578 14.3591 14.7536 14.606 14.7578C14.9027 14.7637 15.1295 14.9717 15.1226 15.2617C15.1156 15.5445 14.9 15.7486 14.6079 15.751C14.1167 15.7557 13.6251 15.7557 13.1333 15.751C12.9903 15.7495 12.8631 15.6987 12.771 15.6074C12.6789 15.5161 12.629 15.391 12.6284 15.2539C12.6279 15.1181 12.6741 14.9932 12.7651 14.9014C12.8562 14.8095 12.9833 14.7603 13.1265 14.7568H13.1284Z" fill="black" stroke="black" stroke-width="0.25"/>
</g>
<defs>
<clipPath id="clip0_1011_3043">
<rect width="18" height="17.8863" fill="white"/>
</clipPath>
</defs>
</svg>
