<svg width="20" height="20" viewBox="0 0 20 20" fill="none" xmlns="http://www.w3.org/2000/svg">
<rect width="20" height="20" rx="4" fill="#E5FBED"/>
<g clip-path="url(#clip0_1011_4636)">
<path d="M10.7032 6.875L5.24642 12.3318C5.04534 12.5333 4.91827 12.7968 4.88581 13.0795L4.66839 14.9886C4.65422 15.1229 4.66852 15.2586 4.71037 15.387C4.75222 15.5153 4.82067 15.6334 4.91126 15.7335C5.00184 15.8336 5.11252 15.9134 5.23607 15.9678C5.35961 16.0223 5.49324 16.05 5.62824 16.0492H5.7396L7.64869 15.8318C7.93034 15.7992 8.19327 15.6743 8.39642 15.4765L13.8532 10.0144L10.7032 6.875Z" fill="#1FB757"/>
<path d="M15.699 6.41296L14.3149 5.02887C14.1991 4.91262 14.0615 4.82038 13.91 4.75745C13.7584 4.69451 13.596 4.66211 13.4319 4.66211C13.2678 4.66211 13.1054 4.69451 12.9539 4.75745C12.8023 4.82038 12.6647 4.91262 12.549 5.02887L11.2656 6.3122L14.4156 9.4622L15.699 8.17887C15.8152 8.06308 15.9074 7.92548 15.9704 7.77396C16.0333 7.62244 16.0657 7.45999 16.0657 7.29591C16.0657 7.13184 16.0333 6.96939 15.9704 6.81787C15.9074 6.66635 15.8152 6.52875 15.699 6.41296Z" fill="#1FB757"/>
</g>
<defs>
<clipPath id="clip0_1011_4636">
<rect width="12.7273" height="12.7273" fill="white" transform="translate(4 4)"/>
</clipPath>
</defs>
</svg>
