<svg width="20" height="20" viewBox="0 0 20 20" fill="none" xmlns="http://www.w3.org/2000/svg">
<rect width="20" height="20" rx="4" fill="#FDECEC"/>
<path d="M5.59082 7.38644C5.59082 7.12953 5.77398 6.92127 5.99991 6.92127L7.41277 6.92102C7.69348 6.91293 7.94113 6.70997 8.03665 6.4097C8.03916 6.40181 8.04205 6.39207 8.05241 6.35673L8.11329 6.14903C8.15054 6.02167 8.183 5.91072 8.22841 5.81155C8.40784 5.41975 8.7398 5.14769 9.12342 5.07803C9.22052 5.0604 9.32335 5.06047 9.44138 5.06056H11.2858C11.4038 5.06047 11.5067 5.0604 11.6038 5.07803C11.9874 5.14769 12.3193 5.41975 12.4988 5.81155C12.5442 5.91072 12.5766 6.02167 12.6139 6.14903L12.6748 6.35673C12.6851 6.39207 12.688 6.40181 12.6905 6.4097C12.7861 6.70997 13.0828 6.91318 13.3635 6.92127H14.7272C14.9531 6.92127 15.1363 7.12953 15.1363 7.38644C15.1363 7.64335 14.9531 7.85162 14.7272 7.85162H5.99991C5.77398 7.85162 5.59082 7.64335 5.59082 7.38644Z" fill="#EF4343"/>
<path fill-rule="evenodd" clip-rule="evenodd" d="M10.1491 15.6667H10.578C12.0537 15.6667 12.7915 15.6667 13.2713 15.1969C13.751 14.7271 13.8001 13.9564 13.8982 12.4151L14.0397 10.1943C14.0929 9.35798 14.1196 8.93984 13.8789 8.67487C13.6382 8.4099 13.2318 8.4099 12.419 8.4099H8.30812C7.49528 8.4099 7.08886 8.4099 6.8482 8.67487C6.60753 8.93984 6.63416 9.35798 6.68742 10.1943L6.82886 12.4151C6.92702 13.9564 6.9761 14.7271 7.45584 15.1969C7.93557 15.6667 8.67341 15.6667 10.1491 15.6667ZM9.43354 10.4636C9.41169 10.2335 9.21678 10.0657 8.99821 10.0887C8.77965 10.1117 8.62018 10.3168 8.64204 10.5469L8.90719 13.338C8.92904 13.5681 9.12395 13.7359 9.34252 13.7129C9.56108 13.6899 9.72055 13.4847 9.69869 13.2547L9.43354 10.4636ZM11.7289 10.0887C11.9474 10.1117 12.1069 10.3168 12.0851 10.5469L11.8199 13.338C11.7981 13.5681 11.6031 13.7359 11.3846 13.7129C11.166 13.6899 11.0065 13.4847 11.0284 13.2547L11.2936 10.4636C11.3154 10.2335 11.5103 10.0657 11.7289 10.0887Z" fill="#EF4343"/>
</svg>
