<svg width="18" height="22" viewBox="0 0 18 22" fill="none" xmlns="http://www.w3.org/2000/svg">
<path d="M3.32785 22.0003C3.0759 21.9465 2.81973 21.9072 2.57307 21.8345C1.04133 21.3835 0.0805693 20.1834 0.0134899 18.5452C-0.0562305 16.8446 0.125994 15.1692 0.760872 13.5768C1.17022 12.5494 1.76442 11.6603 2.76111 11.1168C3.36378 10.786 4.04052 10.6206 4.72489 10.6367C4.94251 10.641 5.17174 10.753 5.37033 10.8633C5.68988 11.0404 5.98673 11.261 6.2973 11.4553C8.10299 12.5916 9.90867 12.5901 11.7144 11.451C11.9652 11.2928 12.2209 11.1405 12.4538 10.9607C12.8853 10.6308 13.3607 10.5894 13.8741 10.6663C15.2743 10.8762 16.2636 11.6577 16.9302 12.9046C17.526 14.0175 17.7938 15.2268 17.9131 16.4722C17.9749 17.1131 18.0024 17.757 17.9955 18.401C17.9728 20.3201 16.6803 21.7484 14.8069 21.9588C14.76 21.9681 14.7141 21.9816 14.6696 21.9992L3.32785 22.0003ZM9.0016 20.7087V20.7054C10.7863 20.7054 12.5716 20.721 14.3563 20.7001C15.8395 20.6828 16.7501 19.719 16.7379 18.2099C16.7368 17.6372 16.7068 17.0649 16.6481 16.4953C16.5367 15.4728 16.3312 14.4766 15.8432 13.5601C15.3398 12.6091 14.6104 11.9935 13.5118 11.9316C13.4092 11.9278 13.3077 11.9534 13.2186 12.0053C12.9466 12.1668 12.6857 12.3503 12.4179 12.5214C10.4224 13.7969 8.35616 13.9584 6.23128 12.8933C5.73584 12.6447 5.28371 12.3083 4.8094 12.0161C4.73968 11.973 4.65623 11.9203 4.58123 11.9235C3.89934 11.9547 3.28717 12.1732 2.79649 12.677C2.38926 13.0946 2.1051 13.5956 1.89858 14.1403C1.37039 15.5325 1.24099 16.9926 1.27585 18.4645C1.29487 19.2717 1.63607 19.9288 2.33856 20.3519C2.80653 20.6333 3.32467 20.7092 3.85867 20.7092L9.0016 20.7087ZM14.069 5.29106C14.078 8.21388 11.7714 10.5705 8.87695 10.5958C6.02475 10.6206 3.6812 8.24456 3.66641 5.31098C3.66513 4.61484 3.79843 3.92526 4.0587 3.28161C4.31897 2.63796 4.70111 2.05285 5.18332 1.55968C6.15716 0.563679 7.47944 0.00264991 8.85926 9.3631e-06C10.2391 -0.00263119 11.5634 0.553335 12.5409 1.5456C13.5184 2.53786 14.0691 3.88515 14.0716 5.29106H14.069ZM8.86692 9.30691C9.64539 9.30713 10.4064 9.07212 11.0538 8.63163C11.7012 8.19113 12.2059 7.56492 12.504 6.83218C12.8021 6.09944 12.8802 5.29309 12.7286 4.5151C12.5769 3.7371 12.2022 3.0224 11.6519 2.46138C11.1016 1.90035 10.4004 1.5182 9.63689 1.36325C8.87342 1.20829 8.08199 1.2875 7.3627 1.59084C6.6434 1.89419 6.02854 2.40805 5.59587 3.06745C5.1632 3.72685 4.93215 4.50217 4.93194 5.29537C4.92999 5.82268 5.0304 6.34517 5.2274 6.83278C5.4244 7.32039 5.71411 7.76349 6.07983 8.13658C6.44555 8.50967 6.88008 8.80538 7.3584 9.0067C7.83672 9.20801 8.3494 9.31096 8.86692 9.3096V9.30691Z" fill="black"/>
</svg>
