<svg width="78" height="60" viewBox="0 0 78 60" fill="none" xmlns="http://www.w3.org/2000/svg">
<path d="M46.6106 32.1113H31.3984C30.0501 32.113 28.7574 32.6556 27.8041 33.6199C26.8508 34.5843 26.3147 35.8917 26.3135 37.2553V46.1292H51.6814V37.2393C51.6793 35.8799 51.1444 34.5768 50.1939 33.6156C49.2434 32.6544 47.9548 32.1134 46.6106 32.1113Z" fill="#FFFFFF"/>
<path d="M77.3736 14.6034C77.3021 14.4908 77.2039 14.3981 77.0878 14.3338C76.9718 14.2695 76.8416 14.2357 76.7093 14.2355H66.3179L62.0317 2.41534C61.7351 1.69987 61.2361 1.08896 60.5973 0.659273C59.9586 0.229587 59.2085 0.000275364 58.4414 0.000119899H19.1377C18.3421 -0.00618514 17.5641 0.236318 16.9101 0.694436C16.256 1.15255 15.758 1.80389 15.4841 2.55929L11.6724 14.2355H0.790711C0.658392 14.2357 0.528243 14.2695 0.412186 14.3338C0.296129 14.3981 0.197875 14.4908 0.126423 14.6034C0.0528878 14.716 0.00981284 14.8462 0.00148787 14.9809C-0.0068371 15.1156 0.0198788 15.2501 0.0789742 15.3712L2.59378 20.8734C2.65379 21.0132 2.75343 21.1319 2.88011 21.2144C3.00679 21.297 3.15483 21.3397 3.30551 21.3372H6.18409C3.92235 24.0723 3.57439 27.8311 3.57439 31.254V45.3295C3.57439 45.5416 3.65771 45.745 3.80602 45.895C3.95433 46.045 4.15547 46.1292 4.36521 46.1292H24.7335V37.2553C24.7352 35.4676 25.4381 33.7536 26.6879 32.4894C27.9377 31.2252 29.6324 30.514 31.4001 30.5119H46.6123C48.376 30.514 50.0668 31.2234 51.3139 32.4846C52.5611 33.7458 53.2626 35.4557 53.2647 37.2393V46.1292H73.6251C73.8348 46.1292 74.036 46.045 74.1843 45.895C74.3326 45.745 74.4159 45.5416 74.4159 45.3295V31.254C74.4835 29.0285 74.2114 26.8058 73.6093 24.6642C73.2299 23.4496 72.6231 22.3201 71.822 21.3372H74.1945C74.3452 21.3397 74.4932 21.297 74.6199 21.2144C74.7466 21.1319 74.8462 21.0132 74.9062 20.8734L77.421 15.3712C77.4801 15.2501 77.5069 15.1156 77.4985 14.9809C77.4902 14.8462 77.4471 14.716 77.3736 14.6034ZM21.352 36.753C21.352 36.9651 21.2687 37.1686 21.1204 37.3185C20.9721 37.4685 20.7709 37.5528 20.5612 37.5528C20.5269 37.5552 20.4926 37.5552 20.4584 37.5528L10.9986 36.2828C10.8074 36.2571 10.6322 36.1616 10.5057 36.0143C10.3793 35.867 10.3105 35.6781 10.3122 35.4831V31.3116C10.3112 31.1972 10.3345 31.084 10.3805 30.9795C10.4265 30.875 10.4942 30.7817 10.5789 30.7059C10.6636 30.6301 10.7634 30.5736 10.8715 30.5401C10.9797 30.5066 11.0937 30.497 11.2058 30.5119L20.664 31.7659C20.8554 31.7912 21.0311 31.8866 21.1578 32.0339C21.2846 32.1812 21.3536 32.3703 21.352 32.5656V36.753ZM38.2755 20.5215C30.4202 20.604 22.5991 19.463 15.0871 17.1386C14.8893 17.0736 14.7247 16.9324 14.6291 16.7456C14.5335 16.5588 14.5145 16.3414 14.5763 16.1405L17.3315 7.15621C17.5749 6.35215 18.0678 5.64867 18.7371 5.14977C19.4065 4.65087 20.2168 4.38305 21.0483 4.3859H56.4469C57.2787 4.3829 58.0893 4.65086 58.7588 5.1501C59.4282 5.64934 59.9209 6.35332 60.1638 7.1578L62.919 16.1405C62.9502 16.2416 62.9611 16.348 62.9513 16.4534C62.9415 16.5589 62.911 16.6613 62.8617 16.7548C62.8124 16.8482 62.7453 16.9308 62.6642 16.9978C62.583 17.0648 62.4896 17.1148 62.3892 17.145C54.55 19.4199 46.431 20.5568 38.2755 20.5215ZM67.6797 35.4815C67.6814 35.6767 67.6123 35.8658 67.4856 36.0132C67.3588 36.1605 67.1832 36.2558 66.9917 36.2812L57.5335 37.5512C57.4988 37.5536 57.4639 37.5536 57.4291 37.5512C57.2194 37.5512 57.0183 37.4669 56.87 37.3169C56.7216 37.167 56.6383 36.9635 56.6383 36.7514V32.5656C56.6367 32.3703 56.7058 32.1812 56.8325 32.0339C56.9592 31.8866 57.1349 31.7912 57.3263 31.7659L66.7845 30.5119C66.8968 30.4967 67.011 30.5062 67.1193 30.5395C67.2276 30.5729 67.3276 30.6294 67.4125 30.7052C67.4974 30.7811 67.5652 30.8744 67.6113 30.9791C67.6574 31.0837 67.6807 31.1971 67.6797 31.3116V35.4815Z" fill="#FFFFFF"/>
<path d="M3.57422 47.585V47.601C3.57422 48.2373 3.82417 48.8475 4.26909 49.2975C4.71402 49.7474 5.31746 50.0002 5.94668 50.0002H12.5896C13.1962 50.002 13.7801 49.7668 14.2193 49.3435C14.6584 48.9203 14.9189 48.3418 14.9462 47.7289H4.36504C4.09491 47.7306 3.8268 47.6818 3.57422 47.585Z" fill="#FFFFFF"/>
<path d="M63.0444 47.7289C63.0718 48.3418 63.3322 48.9203 63.7714 49.3435C64.2105 49.7668 64.7944 50.002 65.4011 50.0002H72.0439C72.6732 50.0002 73.2766 49.7474 73.7215 49.2975C74.1665 48.8475 74.4164 48.2373 74.4164 47.601V47.585C74.1638 47.6818 73.8957 47.7306 73.6256 47.7289H63.0444Z" fill="#FFFFFF"/>
</svg>
