<svg width="22" height="22" viewBox="0 0 22 22" fill="none" xmlns="http://www.w3.org/2000/svg">
<path d="M13.75 4.63477L19.525 10.4098C19.7301 10.6142 19.8928 10.857 20.0039 11.1244C20.1149 11.3918 20.1721 11.6785 20.1721 11.9681C20.1721 12.2576 20.1149 12.5444 20.0039 12.8118C19.8928 13.0792 19.7301 13.322 19.525 13.5264L15.5833 17.4681" stroke="currentColor" stroke-width="1.33333" stroke-linecap="round" stroke-linejoin="round"/>
<path d="M8.78709 5.17193C8.44335 4.82809 7.97711 4.63487 7.49092 4.63477H2.74992C2.5068 4.63477 2.27365 4.73134 2.10174 4.90325C1.92983 5.07516 1.83325 5.30832 1.83325 5.55143V10.2924C1.83336 10.7786 2.02658 11.2449 2.37042 11.5886L7.59909 16.8173C8.01572 17.2313 8.57923 17.4636 9.16659 17.4636C9.75394 17.4636 10.3174 17.2313 10.7341 16.8173L14.0158 13.5356C14.4298 13.119 14.6621 12.5555 14.6621 11.9681C14.6621 11.3807 14.4298 10.8172 14.0158 10.4006L8.78709 5.17193Z" stroke="currentColor" stroke-width="1.33333" stroke-linecap="round" stroke-linejoin="round"/>
<path d="M5.95833 9.2194C6.21146 9.2194 6.41667 9.0142 6.41667 8.76107C6.41667 8.50794 6.21146 8.30273 5.95833 8.30273C5.7052 8.30273 5.5 8.50794 5.5 8.76107C5.5 9.0142 5.7052 9.2194 5.95833 9.2194Z" fill="white" stroke="currentColor" stroke-width="1.33333" stroke-linecap="round" stroke-linejoin="round"/>
</svg>
