<svg width="22" height="22" viewBox="0 0 22 22" fill="none" xmlns="http://www.w3.org/2000/svg">
<path d="M8.25 2.82031H3.66667C3.16041 2.82031 2.75 3.23072 2.75 3.73698V10.1536C2.75 10.6599 3.16041 11.0703 3.66667 11.0703H8.25C8.75626 11.0703 9.16667 10.6599 9.16667 10.1536V3.73698C9.16667 3.23072 8.75626 2.82031 8.25 2.82031Z" stroke="currentColor" stroke-width="1.33333" stroke-linecap="round" stroke-linejoin="round"/>
<path d="M18.3333 2.82031H13.7499C13.2437 2.82031 12.8333 3.23072 12.8333 3.73698V6.48698C12.8333 6.99324 13.2437 7.40365 13.7499 7.40365H18.3333C18.8395 7.40365 19.2499 6.99324 19.2499 6.48698V3.73698C19.2499 3.23072 18.8395 2.82031 18.3333 2.82031Z" stroke="currentColor" stroke-width="1.33333" stroke-linecap="round" stroke-linejoin="round"/>
<path d="M18.3333 11.0703H13.7499C13.2437 11.0703 12.8333 11.4807 12.8333 11.987V18.4036C12.8333 18.9099 13.2437 19.3203 13.7499 19.3203H18.3333C18.8395 19.3203 19.2499 18.9099 19.2499 18.4036V11.987C19.2499 11.4807 18.8395 11.0703 18.3333 11.0703Z" stroke="currentColor" stroke-width="1.33333" stroke-linecap="round" stroke-linejoin="round"/>
<path d="M8.25 14.7383H3.66667C3.16041 14.7383 2.75 15.1487 2.75 15.6549V18.4049C2.75 18.9112 3.16041 19.3216 3.66667 19.3216H8.25C8.75626 19.3216 9.16667 18.9112 9.16667 18.4049V15.6549C9.16667 15.1487 8.75626 14.7383 8.25 14.7383Z" stroke="currentColor" stroke-width="1.33333" stroke-linecap="round" stroke-linejoin="round"/>
</svg>
