<svg width="22" height="22" viewBox="0 0 22 22" fill="none" xmlns="http://www.w3.org/2000/svg">
<path d="M17.4166 15.6354H19.2499C19.7999 15.6354 20.1666 15.2688 20.1666 14.7188V11.9688C20.1666 11.1438 19.5249 10.4104 18.7916 10.2271C17.1416 9.76875 14.6666 9.21875 14.6666 9.21875C14.6666 9.21875 13.4749 7.93542 12.6499 7.11042C12.1916 6.74375 11.6416 6.46875 10.9999 6.46875H4.58325C4.03325 6.46875 3.57492 6.83542 3.29992 7.29375L2.01659 9.95208C1.8952 10.3061 1.83325 10.6778 1.83325 11.0521V14.7188C1.83325 15.2688 2.19992 15.6354 2.74992 15.6354H4.58325" stroke="currentColor" stroke-width="1.33333" stroke-linecap="round" stroke-linejoin="round"/>
<path d="M6.41659 17.4694C7.42911 17.4694 8.24992 16.6486 8.24992 15.6361C8.24992 14.6235 7.42911 13.8027 6.41659 13.8027C5.40406 13.8027 4.58325 14.6235 4.58325 15.6361C4.58325 16.6486 5.40406 17.4694 6.41659 17.4694Z" stroke="currentColor" stroke-width="1.33333" stroke-linecap="round" stroke-linejoin="round"/>
<path d="M8.25 15.6348H13.75" stroke="currentColor" stroke-width="1.33333" stroke-linecap="round" stroke-linejoin="round"/>
<path d="M15.5833 17.4694C16.5959 17.4694 17.4167 16.6486 17.4167 15.6361C17.4167 14.6235 16.5959 13.8027 15.5833 13.8027C14.5708 13.8027 13.75 14.6235 13.75 15.6361C13.75 16.6486 14.5708 17.4694 15.5833 17.4694Z" stroke="currentColor" stroke-width="1.33333" stroke-linecap="round" stroke-linejoin="round"/>
</svg>
