<svg width="22" height="22" viewBox="0 0 22 22" fill="none" xmlns="http://www.w3.org/2000/svg">
<path d="M2.75 10.1361L19.25 5.55273V16.5527L2.75 12.8861V10.1361Z" stroke="currentColor" stroke-width="1.33333" stroke-linecap="round" stroke-linejoin="round"/>
<path d="M10.6332 15.451C10.5369 15.8001 10.3728 16.1269 10.1503 16.4125C9.92769 16.6982 9.65104 16.9372 9.33609 17.116C9.02115 17.2947 8.67408 17.4097 8.3147 17.4543C7.95533 17.4989 7.59068 17.4723 7.24158 17.376C6.89248 17.2797 6.56577 17.1156 6.2801 16.8931C5.99443 16.6705 5.7554 16.3938 5.57664 16.0789C5.39789 15.7639 5.28292 15.4169 5.2383 15.0575C5.19368 14.6981 5.22028 14.3335 5.31658 13.9844" stroke="currentColor" stroke-width="1.33333" stroke-linecap="round" stroke-linejoin="round"/>
</svg>
