<svg width="22" height="22" viewBox="0 0 22 22" fill="none" xmlns="http://www.w3.org/2000/svg">
<path d="M11.2017 1.88477H10.7983C10.3121 1.88477 9.84579 2.07792 9.50197 2.42174C9.15816 2.76555 8.965 3.23187 8.965 3.7181V3.8831C8.96467 4.2046 8.8798 4.52036 8.71891 4.7987C8.55802 5.07704 8.32676 5.30818 8.04833 5.46893L7.65417 5.6981C7.37547 5.85901 7.05932 5.94372 6.7375 5.94372C6.41568 5.94372 6.09954 5.85901 5.82084 5.6981L5.68333 5.62477C5.26264 5.38209 4.76285 5.31626 4.29367 5.44171C3.82449 5.56717 3.42426 5.87367 3.18084 6.29393L2.97917 6.64227C2.73649 7.06296 2.67066 7.56275 2.79612 8.03193C2.92158 8.50111 3.22808 8.90134 3.64834 9.14477L3.78584 9.23643C4.06292 9.3964 4.29332 9.6261 4.45413 9.90269C4.61494 10.1793 4.70057 10.4932 4.7025 10.8131V11.2806C4.70378 11.6037 4.61968 11.9213 4.45871 12.2014C4.29774 12.4815 4.06561 12.7141 3.78584 12.8756L3.64834 12.9581C3.22808 13.2015 2.92158 13.6018 2.79612 14.0709C2.67066 14.5401 2.73649 15.0399 2.97917 15.4606L3.18084 15.8089C3.42426 16.2292 3.82449 16.5357 4.29367 16.6612C4.76285 16.7866 5.26264 16.7208 5.68333 16.4781L5.82084 16.4048C6.09954 16.2439 6.41568 16.1591 6.7375 16.1591C7.05932 16.1591 7.37547 16.2439 7.65417 16.4048L8.04833 16.6339C8.32676 16.7947 8.55802 17.0258 8.71891 17.3042C8.8798 17.5825 8.96467 17.8983 8.965 18.2198V18.3848C8.965 18.871 9.15816 19.3373 9.50197 19.6811C9.84579 20.0249 10.3121 20.2181 10.7983 20.2181H11.2017C11.6879 20.2181 12.1542 20.0249 12.498 19.6811C12.8418 19.3373 13.035 18.871 13.035 18.3848V18.2198C13.0353 17.8983 13.1202 17.5825 13.2811 17.3042C13.442 17.0258 13.6732 16.7947 13.9517 16.6339L14.3458 16.4048C14.6245 16.2439 14.9407 16.1591 15.2625 16.1591C15.5843 16.1591 15.9005 16.2439 16.1792 16.4048L16.3167 16.4781C16.7374 16.7208 17.2372 16.7866 17.7063 16.6612C18.1755 16.5357 18.5757 16.2292 18.8192 15.8089L19.0208 15.4514C19.2635 15.0307 19.3293 14.5309 19.2039 14.0618C19.0784 13.5926 18.7719 13.1924 18.3517 12.9489L18.2142 12.8756C17.9344 12.7141 17.7023 12.4815 17.5413 12.2014C17.3803 11.9213 17.2962 11.6037 17.2975 11.2806V10.8223C17.2962 10.4992 17.3803 10.1816 17.5413 9.90147C17.7023 9.62137 17.9344 9.38879 18.2142 9.22727L18.3517 9.14477C18.7719 8.90134 19.0784 8.50111 19.2039 8.03193C19.3293 7.56275 19.2635 7.06296 19.0208 6.64227L18.8192 6.29393C18.5757 5.87367 18.1755 5.56717 17.7063 5.44171C17.2372 5.31626 16.7374 5.38209 16.3167 5.62477L16.1792 5.6981C15.9005 5.85901 15.5843 5.94372 15.2625 5.94372C14.9407 5.94372 14.6245 5.85901 14.3458 5.6981L13.9517 5.46893C13.6732 5.30818 13.442 5.07704 13.2811 4.7987C13.1202 4.52036 13.0353 4.2046 13.035 3.8831V3.7181C13.035 3.23187 12.8418 2.76555 12.498 2.42174C12.1542 2.07792 11.6879 1.88477 11.2017 1.88477Z" stroke="currentColor" stroke-width="1.33333" stroke-linecap="round" stroke-linejoin="round"/>
<path d="M11 13.8027C12.5188 13.8027 13.75 12.5715 13.75 11.0527C13.75 9.53395 12.5188 8.30273 11 8.30273C9.48122 8.30273 8.25 9.53395 8.25 11.0527C8.25 12.5715 9.48122 13.8027 11 13.8027Z" stroke="currentColor" stroke-width="1.33333" stroke-linecap="round" stroke-linejoin="round"/>
</svg>
