<svg width="22" height="22" viewBox="0 0 22 22" fill="none" xmlns="http://www.w3.org/2000/svg">
<path d="M14.6666 19.3027V17.4694C14.6666 16.4969 14.2803 15.5643 13.5926 14.8767C12.905 14.189 11.9724 13.8027 10.9999 13.8027H5.49992C4.52746 13.8027 3.59483 14.189 2.90719 14.8767C2.21956 15.5643 1.83325 16.4969 1.83325 17.4694V19.3027" stroke="currentColor" stroke-width="1.33333" stroke-linecap="round" stroke-linejoin="round"/>
<path d="M8.24992 10.1361C10.275 10.1361 11.9166 8.49445 11.9166 6.4694C11.9166 4.44436 10.275 2.80273 8.24992 2.80273C6.22487 2.80273 4.58325 4.44436 4.58325 6.4694C4.58325 8.49445 6.22487 10.1361 8.24992 10.1361Z" stroke="currentColor" stroke-width="1.33333" stroke-linecap="round" stroke-linejoin="round"/>
<path d="M20.1667 19.3008V17.4674C20.1661 16.655 19.8957 15.8658 19.398 15.2237C18.9003 14.5816 18.2034 14.123 17.4167 13.9199" stroke="currentColor" stroke-width="1.33333" stroke-linecap="round" stroke-linejoin="round"/>
<path d="M14.6667 2.91992C15.4555 3.12186 16.1545 3.58056 16.6538 4.22371C17.153 4.86685 17.4239 5.65785 17.4239 6.47201C17.4239 7.28616 17.153 8.07716 16.6538 8.7203C16.1545 9.36345 15.4555 9.82215 14.6667 10.0241" stroke="currentColor" stroke-width="1.33333" stroke-linecap="round" stroke-linejoin="round"/>
</svg>
